<svg xmlns="http://www.w3.org/2000/svg" width="888" height="158" viewBox="0 0 888 158" font-family="-apple-system,Segoe UI,Helvetica,Arial,sans-serif">
<style>
  text.lbl { fill:#7d8590; font-size:13px; font-weight:600; }
  text.total { fill:#e6edf3; font-size:15px; font-weight:700; }
  .c { transform-box:fill-box; transform-origin:center; opacity:0; animation:pop 0.55s ease-out both; }
  .g { animation:pop 0.55s ease-out both, flash 0.7s ease-out both; }
  @keyframes pop { 0%{opacity:0;transform:scale(.2)} 60%{opacity:1;transform:scale(1.1)} 100%{opacity:1;transform:scale(1)} }
  @keyframes flash { 0%{filter:brightness(2.4)} 45%{filter:brightness(2.4)} 100%{filter:brightness(1)} }
  @media (prefers-reduced-motion: reduce) { .c { opacity:1 !important; animation:none !important; } }
</style>
<rect width="888" height="158" fill="none"/>
<text class="lbl" x="34" y="16">Jul</text>
<text class="lbl" x="66" y="16">Aug</text>
<text class="lbl" x="146" y="16">Sep</text>
<text class="lbl" x="210" y="16">Oct</text>
<text class="lbl" x="274" y="16">Nov</text>
<text class="lbl" x="354" y="16">Dec</text>
<text class="lbl" x="418" y="16">Jan</text>
<text class="lbl" x="482" y="16">Feb</text>
<text class="lbl" x="546" y="16">Mar</text>
<text class="lbl" x="626" y="16">Apr</text>
<text class="lbl" x="690" y="16">May</text>
<text class="lbl" x="770" y="16">Jun</text>
<text class="lbl" x="834" y="16">Jul</text>
<text class="lbl" x="2" y="54">Mon</text>
<text class="lbl" x="2" y="86">Wed</text>
<text class="lbl" x="2" y="118">Fri</text>
<rect class="c g" x="34" y="24" width="13" height="13" rx="2.5" fill="#0e4429" style="animation-delay:0.000s"/>
<rect class="c g" x="34" y="40" width="13" height="13" rx="2.5" fill="#0e4429" style="animation-delay:0.006s"/>
<rect class="c g" x="34" y="56" width="13" height="13" rx="2.5" fill="#0e4429" style="animation-delay:0.011s"/>
<rect class="c g" x="34" y="72" width="13" height="13" rx="2.5" fill="#0e4429" style="animation-delay:0.017s"/>
<rect class="c g" x="34" y="88" width="13" height="13" rx="2.5" fill="#0e4429" style="animation-delay:0.023s"/>
<rect class="c g" x="34" y="104" width="13" height="13" rx="2.5" fill="#0e4429" style="animation-delay:0.029s"/>
<rect class="c g" x="34" y="120" width="13" height="13" rx="2.5" fill="#0e4429" style="animation-delay:0.034s"/>
<rect class="c g" x="50" y="24" width="13" height="13" rx="2.5" fill="#0e4429" style="animation-delay:0.040s"/>
<rect class="c g" x="50" y="40" width="13" height="13" rx="2.5" fill="#0e4429" style="animation-delay:0.046s"/>
<rect class="c g" x="50" y="56" width="13" height="13" rx="2.5" fill="#0e4429" style="animation-delay:0.051s"/>
<rect class="c g" x="50" y="72" width="13" height="13" rx="2.5" fill="#0e4429" style="animation-delay:0.057s"/>
<rect class="c g" x="50" y="88" width="13" height="13" rx="2.5" fill="#0e4429" style="animation-delay:0.063s"/>
<rect class="c g" x="50" y="104" width="13" height="13" rx="2.5" fill="#0e4429" style="animation-delay:0.068s"/>
<rect class="c g" x="50" y="120" width="13" height="13" rx="2.5" fill="#0e4429" style="animation-delay:0.074s"/>
<rect class="c g" x="66" y="24" width="13" height="13" rx="2.5" fill="#0e4429" style="animation-delay:0.080s"/>
<rect class="c g" x="66" y="40" width="13" height="13" rx="2.5" fill="#0e4429" style="animation-delay:0.085s"/>
<rect class="c g" x="66" y="56" width="13" height="13" rx="2.5" fill="#0e4429" style="animation-delay:0.091s"/>
<rect class="c g" x="66" y="72" width="13" height="13" rx="2.5" fill="#0e4429" style="animation-delay:0.097s"/>
<rect class="c g" x="66" y="88" width="13" height="13" rx="2.5" fill="#0e4429" style="animation-delay:0.103s"/>
<rect class="c g" x="66" y="104" width="13" height="13" rx="2.5" fill="#0e4429" style="animation-delay:0.108s"/>
<rect class="c g" x="66" y="120" width="13" height="13" rx="2.5" fill="#0e4429" style="animation-delay:0.114s"/>
<rect class="c g" x="82" y="24" width="13" height="13" rx="2.5" fill="#0e4429" style="animation-delay:0.120s"/>
<rect class="c g" x="82" y="40" width="13" height="13" rx="2.5" fill="#0e4429" style="animation-delay:0.125s"/>
<rect class="c g" x="82" y="56" width="13" height="13" rx="2.5" fill="#0e4429" style="animation-delay:0.131s"/>
<rect class="c g" x="82" y="72" width="13" height="13" rx="2.5" fill="#0e4429" style="animation-delay:0.137s"/>
<rect class="c g" x="82" y="88" width="13" height="13" rx="2.5" fill="#0e4429" style="animation-delay:0.142s"/>
<rect class="c g" x="82" y="104" width="13" height="13" rx="2.5" fill="#0e4429" style="animation-delay:0.148s"/>
<rect class="c g" x="82" y="120" width="13" height="13" rx="2.5" fill="#0e4429" style="animation-delay:0.154s"/>
<rect class="c g" x="98" y="24" width="13" height="13" rx="2.5" fill="#0e4429" style="animation-delay:0.160s"/>
<rect class="c g" x="98" y="40" width="13" height="13" rx="2.5" fill="#0e4429" style="animation-delay:0.165s"/>
<rect class="c g" x="98" y="56" width="13" height="13" rx="2.5" fill="#0e4429" style="animation-delay:0.171s"/>
<rect class="c g" x="98" y="72" width="13" height="13" rx="2.5" fill="#0e4429" style="animation-delay:0.177s"/>
<rect class="c g" x="98" y="88" width="13" height="13" rx="2.5" fill="#0e4429" style="animation-delay:0.182s"/>
<rect class="c g" x="98" y="104" width="13" height="13" rx="2.5" fill="#0e4429" style="animation-delay:0.188s"/>
<rect class="c g" x="98" y="120" width="13" height="13" rx="2.5" fill="#0e4429" style="animation-delay:0.194s"/>
<rect class="c g" x="114" y="24" width="13" height="13" rx="2.5" fill="#0e4429" style="animation-delay:0.200s"/>
<rect class="c g" x="114" y="40" width="13" height="13" rx="2.5" fill="#0e4429" style="animation-delay:0.205s"/>
<rect class="c g" x="114" y="56" width="13" height="13" rx="2.5" fill="#0e4429" style="animation-delay:0.211s"/>
<rect class="c g" x="114" y="72" width="13" height="13" rx="2.5" fill="#0e4429" style="animation-delay:0.217s"/>
<rect class="c g" x="114" y="88" width="13" height="13" rx="2.5" fill="#0e4429" style="animation-delay:0.222s"/>
<rect class="c g" x="114" y="104" width="13" height="13" rx="2.5" fill="#0e4429" style="animation-delay:0.228s"/>
<rect class="c g" x="114" y="120" width="13" height="13" rx="2.5" fill="#0e4429" style="animation-delay:0.234s"/>
<rect class="c g" x="130" y="24" width="13" height="13" rx="2.5" fill="#0e4429" style="animation-delay:0.239s"/>
<rect class="c g" x="130" y="40" width="13" height="13" rx="2.5" fill="#0e4429" style="animation-delay:0.245s"/>
<rect class="c g" x="130" y="56" width="13" height="13" rx="2.5" fill="#0e4429" style="animation-delay:0.251s"/>
<rect class="c g" x="130" y="72" width="13" height="13" rx="2.5" fill="#0e4429" style="animation-delay:0.257s"/>
<rect class="c g" x="130" y="88" width="13" height="13" rx="2.5" fill="#0e4429" style="animation-delay:0.262s"/>
<rect class="c g" x="130" y="104" width="13" height="13" rx="2.5" fill="#0e4429" style="animation-delay:0.268s"/>
<rect class="c g" x="130" y="120" width="13" height="13" rx="2.5" fill="#0e4429" style="animation-delay:0.274s"/>
<rect class="c g" x="146" y="24" width="13" height="13" rx="2.5" fill="#0e4429" style="animation-delay:0.279s"/>
<rect class="c g" x="146" y="40" width="13" height="13" rx="2.5" fill="#0e4429" style="animation-delay:0.285s"/>
<rect class="c g" x="146" y="56" width="13" height="13" rx="2.5" fill="#0e4429" style="animation-delay:0.291s"/>
<rect class="c g" x="146" y="72" width="13" height="13" rx="2.5" fill="#0e4429" style="animation-delay:0.296s"/>
<rect class="c g" x="146" y="88" width="13" height="13" rx="2.5" fill="#0e4429" style="animation-delay:0.302s"/>
<rect class="c g" x="146" y="104" width="13" height="13" rx="2.5" fill="#0e4429" style="animation-delay:0.308s"/>
<rect class="c g" x="146" y="120" width="13" height="13" rx="2.5" fill="#0e4429" style="animation-delay:0.314s"/>
<rect class="c g" x="162" y="24" width="13" height="13" rx="2.5" fill="#0e4429" style="animation-delay:0.319s"/>
<rect class="c g" x="162" y="40" width="13" height="13" rx="2.5" fill="#0e4429" style="animation-delay:0.325s"/>
<rect class="c g" x="162" y="56" width="13" height="13" rx="2.5" fill="#0e4429" style="animation-delay:0.331s"/>
<rect class="c g" x="162" y="72" width="13" height="13" rx="2.5" fill="#0e4429" style="animation-delay:0.336s"/>
<rect class="c g" x="162" y="88" width="13" height="13" rx="2.5" fill="#0e4429" style="animation-delay:0.342s"/>
<rect class="c g" x="162" y="104" width="13" height="13" rx="2.5" fill="#0e4429" style="animation-delay:0.348s"/>
<rect class="c g" x="162" y="120" width="13" height="13" rx="2.5" fill="#0e4429" style="animation-delay:0.353s"/>
<rect class="c g" x="178" y="24" width="13" height="13" rx="2.5" fill="#0e4429" style="animation-delay:0.359s"/>
<rect class="c g" x="178" y="40" width="13" height="13" rx="2.5" fill="#0e4429" style="animation-delay:0.365s"/>
<rect class="c g" x="178" y="56" width="13" height="13" rx="2.5" fill="#0e4429" style="animation-delay:0.370s"/>
<rect class="c g" x="178" y="72" width="13" height="13" rx="2.5" fill="#0e4429" style="animation-delay:0.376s"/>
<rect class="c g" x="178" y="88" width="13" height="13" rx="2.5" fill="#0e4429" style="animation-delay:0.382s"/>
<rect class="c g" x="178" y="104" width="13" height="13" rx="2.5" fill="#0e4429" style="animation-delay:0.388s"/>
<rect class="c g" x="178" y="120" width="13" height="13" rx="2.5" fill="#0e4429" style="animation-delay:0.393s"/>
<rect class="c g" x="194" y="24" width="13" height="13" rx="2.5" fill="#0e4429" style="animation-delay:0.399s"/>
<rect class="c g" x="194" y="40" width="13" height="13" rx="2.5" fill="#0e4429" style="animation-delay:0.405s"/>
<rect class="c g" x="194" y="56" width="13" height="13" rx="2.5" fill="#0e4429" style="animation-delay:0.410s"/>
<rect class="c g" x="194" y="72" width="13" height="13" rx="2.5" fill="#0e4429" style="animation-delay:0.416s"/>
<rect class="c g" x="194" y="88" width="13" height="13" rx="2.5" fill="#0e4429" style="animation-delay:0.422s"/>
<rect class="c g" x="194" y="104" width="13" height="13" rx="2.5" fill="#0e4429" style="animation-delay:0.427s"/>
<rect class="c g" x="194" y="120" width="13" height="13" rx="2.5" fill="#0e4429" style="animation-delay:0.433s"/>
<rect class="c g" x="210" y="24" width="13" height="13" rx="2.5" fill="#0e4429" style="animation-delay:0.439s"/>
<rect class="c g" x="210" y="40" width="13" height="13" rx="2.5" fill="#0e4429" style="animation-delay:0.445s"/>
<rect class="c g" x="210" y="56" width="13" height="13" rx="2.5" fill="#0e4429" style="animation-delay:0.450s"/>
<rect class="c g" x="210" y="72" width="13" height="13" rx="2.5" fill="#0e4429" style="animation-delay:0.456s"/>
<rect class="c g" x="210" y="88" width="13" height="13" rx="2.5" fill="#0e4429" style="animation-delay:0.462s"/>
<rect class="c g" x="210" y="104" width="13" height="13" rx="2.5" fill="#0e4429" style="animation-delay:0.467s"/>
<rect class="c g" x="210" y="120" width="13" height="13" rx="2.5" fill="#0e4429" style="animation-delay:0.473s"/>
<rect class="c g" x="226" y="24" width="13" height="13" rx="2.5" fill="#0e4429" style="animation-delay:0.479s"/>
<rect class="c g" x="226" y="40" width="13" height="13" rx="2.5" fill="#0e4429" style="animation-delay:0.484s"/>
<rect class="c g" x="226" y="56" width="13" height="13" rx="2.5" fill="#0e4429" style="animation-delay:0.490s"/>
<rect class="c g" x="226" y="72" width="13" height="13" rx="2.5" fill="#0e4429" style="animation-delay:0.496s"/>
<rect class="c g" x="226" y="88" width="13" height="13" rx="2.5" fill="#0e4429" style="animation-delay:0.502s"/>
<rect class="c g" x="226" y="104" width="13" height="13" rx="2.5" fill="#0e4429" style="animation-delay:0.507s"/>
<rect class="c g" x="226" y="120" width="13" height="13" rx="2.5" fill="#0e4429" style="animation-delay:0.513s"/>
<rect class="c g" x="242" y="24" width="13" height="13" rx="2.5" fill="#0e4429" style="animation-delay:0.519s"/>
<rect class="c g" x="242" y="40" width="13" height="13" rx="2.5" fill="#0e4429" style="animation-delay:0.524s"/>
<rect class="c g" x="242" y="56" width="13" height="13" rx="2.5" fill="#0e4429" style="animation-delay:0.530s"/>
<rect class="c g" x="242" y="72" width="13" height="13" rx="2.5" fill="#0e4429" style="animation-delay:0.536s"/>
<rect class="c g" x="242" y="88" width="13" height="13" rx="2.5" fill="#0e4429" style="animation-delay:0.541s"/>
<rect class="c g" x="242" y="104" width="13" height="13" rx="2.5" fill="#0e4429" style="animation-delay:0.547s"/>
<rect class="c g" x="242" y="120" width="13" height="13" rx="2.5" fill="#0e4429" style="animation-delay:0.553s"/>
<rect class="c g" x="258" y="24" width="13" height="13" rx="2.5" fill="#0e4429" style="animation-delay:0.559s"/>
<rect class="c g" x="258" y="40" width="13" height="13" rx="2.5" fill="#0e4429" style="animation-delay:0.564s"/>
<rect class="c g" x="258" y="56" width="13" height="13" rx="2.5" fill="#0e4429" style="animation-delay:0.570s"/>
<rect class="c g" x="258" y="72" width="13" height="13" rx="2.5" fill="#0e4429" style="animation-delay:0.576s"/>
<rect class="c g" x="258" y="88" width="13" height="13" rx="2.5" fill="#0e4429" style="animation-delay:0.581s"/>
<rect class="c g" x="258" y="104" width="13" height="13" rx="2.5" fill="#0e4429" style="animation-delay:0.587s"/>
<rect class="c g" x="258" y="120" width="13" height="13" rx="2.5" fill="#0e4429" style="animation-delay:0.593s"/>
<rect class="c g" x="274" y="24" width="13" height="13" rx="2.5" fill="#0e4429" style="animation-delay:0.599s"/>
<rect class="c g" x="274" y="40" width="13" height="13" rx="2.5" fill="#0e4429" style="animation-delay:0.604s"/>
<rect class="c g" x="274" y="56" width="13" height="13" rx="2.5" fill="#0e4429" style="animation-delay:0.610s"/>
<rect class="c g" x="274" y="72" width="13" height="13" rx="2.5" fill="#0e4429" style="animation-delay:0.616s"/>
<rect class="c g" x="274" y="88" width="13" height="13" rx="2.5" fill="#0e4429" style="animation-delay:0.621s"/>
<rect class="c g" x="274" y="104" width="13" height="13" rx="2.5" fill="#0e4429" style="animation-delay:0.627s"/>
<rect class="c g" x="274" y="120" width="13" height="13" rx="2.5" fill="#0e4429" style="animation-delay:0.633s"/>
<rect class="c g" x="290" y="24" width="13" height="13" rx="2.5" fill="#006d32" style="animation-delay:0.638s"/>
<rect class="c g" x="290" y="40" width="13" height="13" rx="2.5" fill="#0e4429" style="animation-delay:0.644s"/>
<rect class="c g" x="290" y="56" width="13" height="13" rx="2.5" fill="#0e4429" style="animation-delay:0.650s"/>
<rect class="c g" x="290" y="72" width="13" height="13" rx="2.5" fill="#0e4429" style="animation-delay:0.656s"/>
<rect class="c g" x="290" y="88" width="13" height="13" rx="2.5" fill="#0e4429" style="animation-delay:0.661s"/>
<rect class="c g" x="290" y="104" width="13" height="13" rx="2.5" fill="#0e4429" style="animation-delay:0.667s"/>
<rect class="c g" x="290" y="120" width="13" height="13" rx="2.5" fill="#0e4429" style="animation-delay:0.673s"/>
<rect class="c g" x="306" y="24" width="13" height="13" rx="2.5" fill="#0e4429" style="animation-delay:0.678s"/>
<rect class="c g" x="306" y="40" width="13" height="13" rx="2.5" fill="#0e4429" style="animation-delay:0.684s"/>
<rect class="c g" x="306" y="56" width="13" height="13" rx="2.5" fill="#0e4429" style="animation-delay:0.690s"/>
<rect class="c g" x="306" y="72" width="13" height="13" rx="2.5" fill="#0e4429" style="animation-delay:0.695s"/>
<rect class="c g" x="306" y="88" width="13" height="13" rx="2.5" fill="#0e4429" style="animation-delay:0.701s"/>
<rect class="c g" x="306" y="104" width="13" height="13" rx="2.5" fill="#0e4429" style="animation-delay:0.707s"/>
<rect class="c g" x="306" y="120" width="13" height="13" rx="2.5" fill="#0e4429" style="animation-delay:0.713s"/>
<rect class="c g" x="322" y="24" width="13" height="13" rx="2.5" fill="#0e4429" style="animation-delay:0.718s"/>
<rect class="c g" x="322" y="40" width="13" height="13" rx="2.5" fill="#0e4429" style="animation-delay:0.724s"/>
<rect class="c g" x="322" y="56" width="13" height="13" rx="2.5" fill="#0e4429" style="animation-delay:0.730s"/>
<rect class="c g" x="322" y="72" width="13" height="13" rx="2.5" fill="#0e4429" style="animation-delay:0.735s"/>
<rect class="c g" x="322" y="88" width="13" height="13" rx="2.5" fill="#0e4429" style="animation-delay:0.741s"/>
<rect class="c g" x="322" y="104" width="13" height="13" rx="2.5" fill="#0e4429" style="animation-delay:0.747s"/>
<rect class="c g" x="322" y="120" width="13" height="13" rx="2.5" fill="#0e4429" style="animation-delay:0.752s"/>
<rect class="c g" x="338" y="24" width="13" height="13" rx="2.5" fill="#0e4429" style="animation-delay:0.758s"/>
<rect class="c g" x="338" y="40" width="13" height="13" rx="2.5" fill="#0e4429" style="animation-delay:0.764s"/>
<rect class="c g" x="338" y="56" width="13" height="13" rx="2.5" fill="#0e4429" style="animation-delay:0.770s"/>
<rect class="c g" x="338" y="72" width="13" height="13" rx="2.5" fill="#0e4429" style="animation-delay:0.775s"/>
<rect class="c g" x="338" y="88" width="13" height="13" rx="2.5" fill="#0e4429" style="animation-delay:0.781s"/>
<rect class="c g" x="338" y="104" width="13" height="13" rx="2.5" fill="#0e4429" style="animation-delay:0.787s"/>
<rect class="c g" x="338" y="120" width="13" height="13" rx="2.5" fill="#0e4429" style="animation-delay:0.792s"/>
<rect class="c g" x="354" y="24" width="13" height="13" rx="2.5" fill="#0e4429" style="animation-delay:0.798s"/>
<rect class="c g" x="354" y="40" width="13" height="13" rx="2.5" fill="#0e4429" style="animation-delay:0.804s"/>
<rect class="c g" x="354" y="56" width="13" height="13" rx="2.5" fill="#0e4429" style="animation-delay:0.809s"/>
<rect class="c g" x="354" y="72" width="13" height="13" rx="2.5" fill="#0e4429" style="animation-delay:0.815s"/>
<rect class="c g" x="354" y="88" width="13" height="13" rx="2.5" fill="#0e4429" style="animation-delay:0.821s"/>
<rect class="c g" x="354" y="104" width="13" height="13" rx="2.5" fill="#0e4429" style="animation-delay:0.827s"/>
<rect class="c g" x="354" y="120" width="13" height="13" rx="2.5" fill="#0e4429" style="animation-delay:0.832s"/>
<rect class="c g" x="370" y="24" width="13" height="13" rx="2.5" fill="#0e4429" style="animation-delay:0.838s"/>
<rect class="c g" x="370" y="40" width="13" height="13" rx="2.5" fill="#0e4429" style="animation-delay:0.844s"/>
<rect class="c g" x="370" y="56" width="13" height="13" rx="2.5" fill="#0e4429" style="animation-delay:0.849s"/>
<rect class="c g" x="370" y="72" width="13" height="13" rx="2.5" fill="#0e4429" style="animation-delay:0.855s"/>
<rect class="c g" x="370" y="88" width="13" height="13" rx="2.5" fill="#0e4429" style="animation-delay:0.861s"/>
<rect class="c g" x="370" y="104" width="13" height="13" rx="2.5" fill="#0e4429" style="animation-delay:0.866s"/>
<rect class="c g" x="370" y="120" width="13" height="13" rx="2.5" fill="#0e4429" style="animation-delay:0.872s"/>
<rect class="c g" x="386" y="24" width="13" height="13" rx="2.5" fill="#0e4429" style="animation-delay:0.878s"/>
<rect class="c g" x="386" y="40" width="13" height="13" rx="2.5" fill="#0e4429" style="animation-delay:0.884s"/>
<rect class="c g" x="386" y="56" width="13" height="13" rx="2.5" fill="#0e4429" style="animation-delay:0.889s"/>
<rect class="c g" x="386" y="72" width="13" height="13" rx="2.5" fill="#0e4429" style="animation-delay:0.895s"/>
<rect class="c g" x="386" y="88" width="13" height="13" rx="2.5" fill="#0e4429" style="animation-delay:0.901s"/>
<rect class="c g" x="386" y="104" width="13" height="13" rx="2.5" fill="#0e4429" style="animation-delay:0.906s"/>
<rect class="c g" x="386" y="120" width="13" height="13" rx="2.5" fill="#0e4429" style="animation-delay:0.912s"/>
<rect class="c g" x="402" y="24" width="13" height="13" rx="2.5" fill="#0e4429" style="animation-delay:0.918s"/>
<rect class="c g" x="402" y="40" width="13" height="13" rx="2.5" fill="#0e4429" style="animation-delay:0.923s"/>
<rect class="c g" x="402" y="56" width="13" height="13" rx="2.5" fill="#0e4429" style="animation-delay:0.929s"/>
<rect class="c g" x="402" y="72" width="13" height="13" rx="2.5" fill="#0e4429" style="animation-delay:0.935s"/>
<rect class="c g" x="402" y="88" width="13" height="13" rx="2.5" fill="#0e4429" style="animation-delay:0.941s"/>
<rect class="c g" x="402" y="104" width="13" height="13" rx="2.5" fill="#0e4429" style="animation-delay:0.946s"/>
<rect class="c g" x="402" y="120" width="13" height="13" rx="2.5" fill="#0e4429" style="animation-delay:0.952s"/>
<rect class="c g" x="418" y="24" width="13" height="13" rx="2.5" fill="#0e4429" style="animation-delay:0.958s"/>
<rect class="c g" x="418" y="40" width="13" height="13" rx="2.5" fill="#0e4429" style="animation-delay:0.963s"/>
<rect class="c g" x="418" y="56" width="13" height="13" rx="2.5" fill="#0e4429" style="animation-delay:0.969s"/>
<rect class="c g" x="418" y="72" width="13" height="13" rx="2.5" fill="#0e4429" style="animation-delay:0.975s"/>
<rect class="c g" x="418" y="88" width="13" height="13" rx="2.5" fill="#0e4429" style="animation-delay:0.980s"/>
<rect class="c g" x="418" y="104" width="13" height="13" rx="2.5" fill="#0e4429" style="animation-delay:0.986s"/>
<rect class="c g" x="418" y="120" width="13" height="13" rx="2.5" fill="#0e4429" style="animation-delay:0.992s"/>
<rect class="c g" x="434" y="24" width="13" height="13" rx="2.5" fill="#0e4429" style="animation-delay:0.998s"/>
<rect class="c g" x="434" y="40" width="13" height="13" rx="2.5" fill="#0e4429" style="animation-delay:1.003s"/>
<rect class="c g" x="434" y="56" width="13" height="13" rx="2.5" fill="#0e4429" style="animation-delay:1.009s"/>
<rect class="c g" x="434" y="72" width="13" height="13" rx="2.5" fill="#0e4429" style="animation-delay:1.015s"/>
<rect class="c g" x="434" y="88" width="13" height="13" rx="2.5" fill="#0e4429" style="animation-delay:1.020s"/>
<rect class="c g" x="434" y="104" width="13" height="13" rx="2.5" fill="#0e4429" style="animation-delay:1.026s"/>
<rect class="c g" x="434" y="120" width="13" height="13" rx="2.5" fill="#0e4429" style="animation-delay:1.032s"/>
<rect class="c g" x="450" y="24" width="13" height="13" rx="2.5" fill="#0e4429" style="animation-delay:1.037s"/>
<rect class="c g" x="450" y="40" width="13" height="13" rx="2.5" fill="#0e4429" style="animation-delay:1.043s"/>
<rect class="c g" x="450" y="56" width="13" height="13" rx="2.5" fill="#0e4429" style="animation-delay:1.049s"/>
<rect class="c g" x="450" y="72" width="13" height="13" rx="2.5" fill="#0e4429" style="animation-delay:1.055s"/>
<rect class="c g" x="450" y="88" width="13" height="13" rx="2.5" fill="#0e4429" style="animation-delay:1.060s"/>
<rect class="c g" x="450" y="104" width="13" height="13" rx="2.5" fill="#0e4429" style="animation-delay:1.066s"/>
<rect class="c g" x="450" y="120" width="13" height="13" rx="2.5" fill="#0e4429" style="animation-delay:1.072s"/>
<rect class="c g" x="466" y="24" width="13" height="13" rx="2.5" fill="#0e4429" style="animation-delay:1.077s"/>
<rect class="c g" x="466" y="40" width="13" height="13" rx="2.5" fill="#0e4429" style="animation-delay:1.083s"/>
<rect class="c g" x="466" y="56" width="13" height="13" rx="2.5" fill="#0e4429" style="animation-delay:1.089s"/>
<rect class="c g" x="466" y="72" width="13" height="13" rx="2.5" fill="#0e4429" style="animation-delay:1.094s"/>
<rect class="c g" x="466" y="88" width="13" height="13" rx="2.5" fill="#0e4429" style="animation-delay:1.100s"/>
<rect class="c g" x="466" y="104" width="13" height="13" rx="2.5" fill="#0e4429" style="animation-delay:1.106s"/>
<rect class="c g" x="466" y="120" width="13" height="13" rx="2.5" fill="#0e4429" style="animation-delay:1.112s"/>
<rect class="c g" x="482" y="24" width="13" height="13" rx="2.5" fill="#0e4429" style="animation-delay:1.117s"/>
<rect class="c g" x="482" y="40" width="13" height="13" rx="2.5" fill="#0e4429" style="animation-delay:1.123s"/>
<rect class="c g" x="482" y="56" width="13" height="13" rx="2.5" fill="#0e4429" style="animation-delay:1.129s"/>
<rect class="c g" x="482" y="72" width="13" height="13" rx="2.5" fill="#0e4429" style="animation-delay:1.134s"/>
<rect class="c g" x="482" y="88" width="13" height="13" rx="2.5" fill="#0e4429" style="animation-delay:1.140s"/>
<rect class="c g" x="482" y="104" width="13" height="13" rx="2.5" fill="#0e4429" style="animation-delay:1.146s"/>
<rect class="c g" x="482" y="120" width="13" height="13" rx="2.5" fill="#0e4429" style="animation-delay:1.151s"/>
<rect class="c g" x="498" y="24" width="13" height="13" rx="2.5" fill="#0e4429" style="animation-delay:1.157s"/>
<rect class="c g" x="498" y="40" width="13" height="13" rx="2.5" fill="#0e4429" style="animation-delay:1.163s"/>
<rect class="c g" x="498" y="56" width="13" height="13" rx="2.5" fill="#0e4429" style="animation-delay:1.169s"/>
<rect class="c g" x="498" y="72" width="13" height="13" rx="2.5" fill="#0e4429" style="animation-delay:1.174s"/>
<rect class="c g" x="498" y="88" width="13" height="13" rx="2.5" fill="#0e4429" style="animation-delay:1.180s"/>
<rect class="c g" x="498" y="104" width="13" height="13" rx="2.5" fill="#0e4429" style="animation-delay:1.186s"/>
<rect class="c g" x="498" y="120" width="13" height="13" rx="2.5" fill="#0e4429" style="animation-delay:1.191s"/>
<rect class="c g" x="514" y="24" width="13" height="13" rx="2.5" fill="#0e4429" style="animation-delay:1.197s"/>
<rect class="c g" x="514" y="40" width="13" height="13" rx="2.5" fill="#0e4429" style="animation-delay:1.203s"/>
<rect class="c g" x="514" y="56" width="13" height="13" rx="2.5" fill="#0e4429" style="animation-delay:1.208s"/>
<rect class="c g" x="514" y="72" width="13" height="13" rx="2.5" fill="#0e4429" style="animation-delay:1.214s"/>
<rect class="c g" x="514" y="88" width="13" height="13" rx="2.5" fill="#0e4429" style="animation-delay:1.220s"/>
<rect class="c g" x="514" y="104" width="13" height="13" rx="2.5" fill="#0e4429" style="animation-delay:1.226s"/>
<rect class="c g" x="514" y="120" width="13" height="13" rx="2.5" fill="#0e4429" style="animation-delay:1.231s"/>
<rect class="c g" x="530" y="24" width="13" height="13" rx="2.5" fill="#0e4429" style="animation-delay:1.237s"/>
<rect class="c g" x="530" y="40" width="13" height="13" rx="2.5" fill="#0e4429" style="animation-delay:1.243s"/>
<rect class="c g" x="530" y="56" width="13" height="13" rx="2.5" fill="#0e4429" style="animation-delay:1.248s"/>
<rect class="c g" x="530" y="72" width="13" height="13" rx="2.5" fill="#0e4429" style="animation-delay:1.254s"/>
<rect class="c g" x="530" y="88" width="13" height="13" rx="2.5" fill="#0e4429" style="animation-delay:1.260s"/>
<rect class="c g" x="530" y="104" width="13" height="13" rx="2.5" fill="#0e4429" style="animation-delay:1.265s"/>
<rect class="c g" x="530" y="120" width="13" height="13" rx="2.5" fill="#0e4429" style="animation-delay:1.271s"/>
<rect class="c g" x="546" y="24" width="13" height="13" rx="2.5" fill="#0e4429" style="animation-delay:1.277s"/>
<rect class="c g" x="546" y="40" width="13" height="13" rx="2.5" fill="#0e4429" style="animation-delay:1.283s"/>
<rect class="c g" x="546" y="56" width="13" height="13" rx="2.5" fill="#0e4429" style="animation-delay:1.288s"/>
<rect class="c g" x="546" y="72" width="13" height="13" rx="2.5" fill="#0e4429" style="animation-delay:1.294s"/>
<rect class="c g" x="546" y="88" width="13" height="13" rx="2.5" fill="#0e4429" style="animation-delay:1.300s"/>
<rect class="c g" x="546" y="104" width="13" height="13" rx="2.5" fill="#0e4429" style="animation-delay:1.305s"/>
<rect class="c g" x="546" y="120" width="13" height="13" rx="2.5" fill="#0e4429" style="animation-delay:1.311s"/>
<rect class="c g" x="562" y="24" width="13" height="13" rx="2.5" fill="#0e4429" style="animation-delay:1.317s"/>
<rect class="c g" x="562" y="40" width="13" height="13" rx="2.5" fill="#0e4429" style="animation-delay:1.322s"/>
<rect class="c g" x="562" y="56" width="13" height="13" rx="2.5" fill="#0e4429" style="animation-delay:1.328s"/>
<rect class="c g" x="562" y="72" width="13" height="13" rx="2.5" fill="#0e4429" style="animation-delay:1.334s"/>
<rect class="c g" x="562" y="88" width="13" height="13" rx="2.5" fill="#0e4429" style="animation-delay:1.340s"/>
<rect class="c g" x="562" y="104" width="13" height="13" rx="2.5" fill="#0e4429" style="animation-delay:1.345s"/>
<rect class="c g" x="562" y="120" width="13" height="13" rx="2.5" fill="#0e4429" style="animation-delay:1.351s"/>
<rect class="c g" x="578" y="24" width="13" height="13" rx="2.5" fill="#0e4429" style="animation-delay:1.357s"/>
<rect class="c g" x="578" y="40" width="13" height="13" rx="2.5" fill="#0e4429" style="animation-delay:1.362s"/>
<rect class="c g" x="578" y="56" width="13" height="13" rx="2.5" fill="#0e4429" style="animation-delay:1.368s"/>
<rect class="c g" x="578" y="72" width="13" height="13" rx="2.5" fill="#0e4429" style="animation-delay:1.374s"/>
<rect class="c g" x="578" y="88" width="13" height="13" rx="2.5" fill="#0e4429" style="animation-delay:1.379s"/>
<rect class="c g" x="578" y="104" width="13" height="13" rx="2.5" fill="#0e4429" style="animation-delay:1.385s"/>
<rect class="c g" x="578" y="120" width="13" height="13" rx="2.5" fill="#0e4429" style="animation-delay:1.391s"/>
<rect class="c g" x="594" y="24" width="13" height="13" rx="2.5" fill="#0e4429" style="animation-delay:1.397s"/>
<rect class="c g" x="594" y="40" width="13" height="13" rx="2.5" fill="#0e4429" style="animation-delay:1.402s"/>
<rect class="c g" x="594" y="56" width="13" height="13" rx="2.5" fill="#0e4429" style="animation-delay:1.408s"/>
<rect class="c g" x="594" y="72" width="13" height="13" rx="2.5" fill="#0e4429" style="animation-delay:1.414s"/>
<rect class="c g" x="594" y="88" width="13" height="13" rx="2.5" fill="#0e4429" style="animation-delay:1.419s"/>
<rect class="c g" x="594" y="104" width="13" height="13" rx="2.5" fill="#0e4429" style="animation-delay:1.425s"/>
<rect class="c g" x="594" y="120" width="13" height="13" rx="2.5" fill="#0e4429" style="animation-delay:1.431s"/>
<rect class="c g" x="610" y="24" width="13" height="13" rx="2.5" fill="#0e4429" style="animation-delay:1.436s"/>
<rect class="c g" x="610" y="40" width="13" height="13" rx="2.5" fill="#0e4429" style="animation-delay:1.442s"/>
<rect class="c g" x="610" y="56" width="13" height="13" rx="2.5" fill="#0e4429" style="animation-delay:1.448s"/>
<rect class="c g" x="610" y="72" width="13" height="13" rx="2.5" fill="#0e4429" style="animation-delay:1.454s"/>
<rect class="c g" x="610" y="88" width="13" height="13" rx="2.5" fill="#0e4429" style="animation-delay:1.459s"/>
<rect class="c g" x="610" y="104" width="13" height="13" rx="2.5" fill="#0e4429" style="animation-delay:1.465s"/>
<rect class="c g" x="610" y="120" width="13" height="13" rx="2.5" fill="#0e4429" style="animation-delay:1.471s"/>
<rect class="c g" x="626" y="24" width="13" height="13" rx="2.5" fill="#0e4429" style="animation-delay:1.476s"/>
<rect class="c g" x="626" y="40" width="13" height="13" rx="2.5" fill="#0e4429" style="animation-delay:1.482s"/>
<rect class="c g" x="626" y="56" width="13" height="13" rx="2.5" fill="#0e4429" style="animation-delay:1.488s"/>
<rect class="c g" x="626" y="72" width="13" height="13" rx="2.5" fill="#0e4429" style="animation-delay:1.493s"/>
<rect class="c g" x="626" y="88" width="13" height="13" rx="2.5" fill="#0e4429" style="animation-delay:1.499s"/>
<rect class="c g" x="626" y="104" width="13" height="13" rx="2.5" fill="#0e4429" style="animation-delay:1.505s"/>
<rect class="c g" x="626" y="120" width="13" height="13" rx="2.5" fill="#0e4429" style="animation-delay:1.511s"/>
<rect class="c g" x="642" y="24" width="13" height="13" rx="2.5" fill="#0e4429" style="animation-delay:1.516s"/>
<rect class="c g" x="642" y="40" width="13" height="13" rx="2.5" fill="#0e4429" style="animation-delay:1.522s"/>
<rect class="c g" x="642" y="56" width="13" height="13" rx="2.5" fill="#0e4429" style="animation-delay:1.528s"/>
<rect class="c g" x="642" y="72" width="13" height="13" rx="2.5" fill="#0e4429" style="animation-delay:1.533s"/>
<rect class="c g" x="642" y="88" width="13" height="13" rx="2.5" fill="#0e4429" style="animation-delay:1.539s"/>
<rect class="c g" x="642" y="104" width="13" height="13" rx="2.5" fill="#0e4429" style="animation-delay:1.545s"/>
<rect class="c g" x="642" y="120" width="13" height="13" rx="2.5" fill="#0e4429" style="animation-delay:1.550s"/>
<rect class="c g" x="658" y="24" width="13" height="13" rx="2.5" fill="#0e4429" style="animation-delay:1.556s"/>
<rect class="c g" x="658" y="40" width="13" height="13" rx="2.5" fill="#0e4429" style="animation-delay:1.562s"/>
<rect class="c g" x="658" y="56" width="13" height="13" rx="2.5" fill="#0e4429" style="animation-delay:1.568s"/>
<rect class="c g" x="658" y="72" width="13" height="13" rx="2.5" fill="#0e4429" style="animation-delay:1.573s"/>
<rect class="c g" x="658" y="88" width="13" height="13" rx="2.5" fill="#0e4429" style="animation-delay:1.579s"/>
<rect class="c g" x="658" y="104" width="13" height="13" rx="2.5" fill="#0e4429" style="animation-delay:1.585s"/>
<rect class="c g" x="658" y="120" width="13" height="13" rx="2.5" fill="#0e4429" style="animation-delay:1.590s"/>
<rect class="c g" x="674" y="24" width="13" height="13" rx="2.5" fill="#0e4429" style="animation-delay:1.596s"/>
<rect class="c g" x="674" y="40" width="13" height="13" rx="2.5" fill="#0e4429" style="animation-delay:1.602s"/>
<rect class="c g" x="674" y="56" width="13" height="13" rx="2.5" fill="#0e4429" style="animation-delay:1.607s"/>
<rect class="c g" x="674" y="72" width="13" height="13" rx="2.5" fill="#0e4429" style="animation-delay:1.613s"/>
<rect class="c g" x="674" y="88" width="13" height="13" rx="2.5" fill="#0e4429" style="animation-delay:1.619s"/>
<rect class="c g" x="674" y="104" width="13" height="13" rx="2.5" fill="#0e4429" style="animation-delay:1.625s"/>
<rect class="c g" x="674" y="120" width="13" height="13" rx="2.5" fill="#0e4429" style="animation-delay:1.630s"/>
<rect class="c g" x="690" y="24" width="13" height="13" rx="2.5" fill="#0e4429" style="animation-delay:1.636s"/>
<rect class="c g" x="690" y="40" width="13" height="13" rx="2.5" fill="#0e4429" style="animation-delay:1.642s"/>
<rect class="c g" x="690" y="56" width="13" height="13" rx="2.5" fill="#0e4429" style="animation-delay:1.647s"/>
<rect class="c g" x="690" y="72" width="13" height="13" rx="2.5" fill="#0e4429" style="animation-delay:1.653s"/>
<rect class="c g" x="690" y="88" width="13" height="13" rx="2.5" fill="#0e4429" style="animation-delay:1.659s"/>
<rect class="c g" x="690" y="104" width="13" height="13" rx="2.5" fill="#0e4429" style="animation-delay:1.664s"/>
<rect class="c g" x="690" y="120" width="13" height="13" rx="2.5" fill="#0e4429" style="animation-delay:1.670s"/>
<rect class="c g" x="706" y="24" width="13" height="13" rx="2.5" fill="#0e4429" style="animation-delay:1.676s"/>
<rect class="c g" x="706" y="40" width="13" height="13" rx="2.5" fill="#0e4429" style="animation-delay:1.682s"/>
<rect class="c g" x="706" y="56" width="13" height="13" rx="2.5" fill="#0e4429" style="animation-delay:1.687s"/>
<rect class="c g" x="706" y="72" width="13" height="13" rx="2.5" fill="#0e4429" style="animation-delay:1.693s"/>
<rect class="c g" x="706" y="88" width="13" height="13" rx="2.5" fill="#0e4429" style="animation-delay:1.699s"/>
<rect class="c g" x="706" y="104" width="13" height="13" rx="2.5" fill="#0e4429" style="animation-delay:1.704s"/>
<rect class="c g" x="706" y="120" width="13" height="13" rx="2.5" fill="#0e4429" style="animation-delay:1.710s"/>
<rect class="c g" x="722" y="24" width="13" height="13" rx="2.5" fill="#0e4429" style="animation-delay:1.716s"/>
<rect class="c g" x="722" y="40" width="13" height="13" rx="2.5" fill="#0e4429" style="animation-delay:1.721s"/>
<rect class="c g" x="722" y="56" width="13" height="13" rx="2.5" fill="#0e4429" style="animation-delay:1.727s"/>
<rect class="c g" x="722" y="72" width="13" height="13" rx="2.5" fill="#0e4429" style="animation-delay:1.733s"/>
<rect class="c g" x="722" y="88" width="13" height="13" rx="2.5" fill="#0e4429" style="animation-delay:1.739s"/>
<rect class="c g" x="722" y="104" width="13" height="13" rx="2.5" fill="#0e4429" style="animation-delay:1.744s"/>
<rect class="c g" x="722" y="120" width="13" height="13" rx="2.5" fill="#0e4429" style="animation-delay:1.750s"/>
<rect class="c g" x="738" y="24" width="13" height="13" rx="2.5" fill="#0e4429" style="animation-delay:1.756s"/>
<rect class="c g" x="738" y="40" width="13" height="13" rx="2.5" fill="#0e4429" style="animation-delay:1.761s"/>
<rect class="c g" x="738" y="56" width="13" height="13" rx="2.5" fill="#0e4429" style="animation-delay:1.767s"/>
<rect class="c g" x="738" y="72" width="13" height="13" rx="2.5" fill="#0e4429" style="animation-delay:1.773s"/>
<rect class="c g" x="738" y="88" width="13" height="13" rx="2.5" fill="#0e4429" style="animation-delay:1.778s"/>
<rect class="c g" x="738" y="104" width="13" height="13" rx="2.5" fill="#0e4429" style="animation-delay:1.784s"/>
<rect class="c g" x="738" y="120" width="13" height="13" rx="2.5" fill="#0e4429" style="animation-delay:1.790s"/>
<rect class="c g" x="754" y="24" width="13" height="13" rx="2.5" fill="#0e4429" style="animation-delay:1.796s"/>
<rect class="c g" x="754" y="40" width="13" height="13" rx="2.5" fill="#0e4429" style="animation-delay:1.801s"/>
<rect class="c g" x="754" y="56" width="13" height="13" rx="2.5" fill="#0e4429" style="animation-delay:1.807s"/>
<rect class="c g" x="754" y="72" width="13" height="13" rx="2.5" fill="#0e4429" style="animation-delay:1.813s"/>
<rect class="c g" x="754" y="88" width="13" height="13" rx="2.5" fill="#0e4429" style="animation-delay:1.818s"/>
<rect class="c g" x="754" y="104" width="13" height="13" rx="2.5" fill="#0e4429" style="animation-delay:1.824s"/>
<rect class="c g" x="754" y="120" width="13" height="13" rx="2.5" fill="#0e4429" style="animation-delay:1.830s"/>
<rect class="c g" x="770" y="24" width="13" height="13" rx="2.5" fill="#0e4429" style="animation-delay:1.835s"/>
<rect class="c g" x="770" y="40" width="13" height="13" rx="2.5" fill="#0e4429" style="animation-delay:1.841s"/>
<rect class="c g" x="770" y="56" width="13" height="13" rx="2.5" fill="#0e4429" style="animation-delay:1.847s"/>
<rect class="c g" x="770" y="72" width="13" height="13" rx="2.5" fill="#006d32" style="animation-delay:1.853s"/>
<rect class="c g" x="770" y="88" width="13" height="13" rx="2.5" fill="#0e4429" style="animation-delay:1.858s"/>
<rect class="c g" x="770" y="104" width="13" height="13" rx="2.5" fill="#0e4429" style="animation-delay:1.864s"/>
<rect class="c g" x="770" y="120" width="13" height="13" rx="2.5" fill="#0e4429" style="animation-delay:1.870s"/>
<rect class="c g" x="786" y="24" width="13" height="13" rx="2.5" fill="#0e4429" style="animation-delay:1.875s"/>
<rect class="c g" x="786" y="40" width="13" height="13" rx="2.5" fill="#0e4429" style="animation-delay:1.881s"/>
<rect class="c g" x="786" y="56" width="13" height="13" rx="2.5" fill="#006d32" style="animation-delay:1.887s"/>
<rect class="c g" x="786" y="72" width="13" height="13" rx="2.5" fill="#006d32" style="animation-delay:1.892s"/>
<rect class="c g" x="786" y="88" width="13" height="13" rx="2.5" fill="#0e4429" style="animation-delay:1.898s"/>
<rect class="c g" x="786" y="104" width="13" height="13" rx="2.5" fill="#0e4429" style="animation-delay:1.904s"/>
<rect class="c g" x="786" y="120" width="13" height="13" rx="2.5" fill="#0e4429" style="animation-delay:1.910s"/>
<rect class="c g" x="802" y="24" width="13" height="13" rx="2.5" fill="#0e4429" style="animation-delay:1.915s"/>
<rect class="c g" x="802" y="40" width="13" height="13" rx="2.5" fill="#0e4429" style="animation-delay:1.921s"/>
<rect class="c g" x="802" y="56" width="13" height="13" rx="2.5" fill="#006d32" style="animation-delay:1.927s"/>
<rect class="c g" x="802" y="72" width="13" height="13" rx="2.5" fill="#0e4429" style="animation-delay:1.932s"/>
<rect class="c g" x="802" y="88" width="13" height="13" rx="2.5" fill="#0e4429" style="animation-delay:1.938s"/>
<rect class="c g" x="802" y="104" width="13" height="13" rx="2.5" fill="#0e4429" style="animation-delay:1.944s"/>
<rect class="c g" x="802" y="120" width="13" height="13" rx="2.5" fill="#0e4429" style="animation-delay:1.949s"/>
<rect class="c g" x="818" y="24" width="13" height="13" rx="2.5" fill="#0e4429" style="animation-delay:1.955s"/>
<rect class="c g" x="818" y="40" width="13" height="13" rx="2.5" fill="#0e4429" style="animation-delay:1.961s"/>
<rect class="c g" x="818" y="56" width="13" height="13" rx="2.5" fill="#0e4429" style="animation-delay:1.967s"/>
<rect class="c g" x="818" y="72" width="13" height="13" rx="2.5" fill="#0e4429" style="animation-delay:1.972s"/>
<rect class="c g" x="818" y="88" width="13" height="13" rx="2.5" fill="#006d32" style="animation-delay:1.978s"/>
<rect class="c g" x="818" y="104" width="13" height="13" rx="2.5" fill="#26a641" style="animation-delay:1.984s"/>
<rect class="c g" x="818" y="120" width="13" height="13" rx="2.5" fill="#0e4429" style="animation-delay:1.989s"/>
<rect class="c g" x="834" y="24" width="13" height="13" rx="2.5" fill="#006d32" style="animation-delay:1.995s"/>
<rect class="c g" x="834" y="40" width="13" height="13" rx="2.5" fill="#006d32" style="animation-delay:2.001s"/>
<rect class="c g" x="834" y="56" width="13" height="13" rx="2.5" fill="#0e4429" style="animation-delay:2.006s"/>
<rect class="c g" x="834" y="72" width="13" height="13" rx="2.5" fill="#39d353" style="animation-delay:2.012s"/>
<rect class="c g" x="834" y="88" width="13" height="13" rx="2.5" fill="#26a641" style="animation-delay:2.018s"/>
<rect class="c g" x="834" y="104" width="13" height="13" rx="2.5" fill="#0e4429" style="animation-delay:2.024s"/>
<rect class="c g" x="834" y="120" width="13" height="13" rx="2.5" fill="#0e4429" style="animation-delay:2.029s"/>
<rect class="c g" x="850" y="24" width="13" height="13" rx="2.5" fill="#0e4429" style="animation-delay:2.035s"/>
<rect class="c g" x="850" y="40" width="13" height="13" rx="2.5" fill="#0e4429" style="animation-delay:2.041s"/>
<rect class="c g" x="850" y="56" width="13" height="13" rx="2.5" fill="#0e4429" style="animation-delay:2.046s"/>
<rect class="c g" x="850" y="72" width="13" height="13" rx="2.5" fill="#0e4429" style="animation-delay:2.052s"/>
<rect class="c g" x="850" y="88" width="13" height="13" rx="2.5" fill="#0e4429" style="animation-delay:2.058s"/>
<rect class="c g" x="850" y="104" width="13" height="13" rx="2.5" fill="#0e4429" style="animation-delay:2.063s"/>
<rect class="c g" x="850" y="120" width="13" height="13" rx="2.5" fill="#0e4429" style="animation-delay:2.069s"/>
<rect class="c g" x="866" y="24" width="13" height="13" rx="2.5" fill="#006d32" style="animation-delay:2.075s"/>
<rect class="c g" x="866" y="40" width="13" height="13" rx="2.5" fill="#39d353" style="animation-delay:2.081s"/>
<rect class="c g" x="866" y="56" width="13" height="13" rx="2.5" fill="#39d353" style="animation-delay:2.086s"/>
<rect class="c g" x="866" y="72" width="13" height="13" rx="2.5" fill="#39d353" style="animation-delay:2.092s"/>
<rect class="c g" x="866" y="88" width="13" height="13" rx="2.5" fill="#0e4429" style="animation-delay:2.098s"/>
<text class="total" x="34" y="152">260 contributions in the last year</text>
</svg>